<?xml version="1.0" encoding="UTF-8"?>
<svg id="Layer_1" data-name="Layer 1" xmlns="http://www.w3.org/2000/svg" viewBox="0 0 1920.5 859.39">
  <defs>
    <style>
      .cls-1 {
        fill: #e075d2;
      }

      .cls-2 {
        fill: #f2f2f2;
      }
    </style>
  </defs>
  <path class="cls-2" d="m1920.5,811.51c-395.11-56.82-872.5-84.51-1407.5-29.12-181.59,18.8-352.85,45.42-513,77V184.39c192.89-55.44,415.03-104.98,663-136,497.48-62.24,929.17-28.75,1257,25"/>
  <path class="cls-1" d="m1920.5,784.92c-301.62,44.05-543.86,37.38-710,22.97-273.09-23.69-414.31-74.7-700-75.49-217.51-.6-395.1,28.25-510.5,52.51.17-216.59.33-433.19.5-649.78C162.38,68.36,410.93-9.22,715.5.89c144.43,4.79,217.13,26.51,366,42.92,193.32,21.31,476.93,29.48,839-42.92"/>
</svg>