<?xml version="1.0" encoding="utf-8"?>
<!-- Generator: Adobe Illustrator 27.2.0, SVG Export Plug-In . SVG Version: 6.00 Build 0)  -->
<svg version="1.1" id="Layer_1" xmlns="http://www.w3.org/2000/svg" xmlns:xlink="http://www.w3.org/1999/xlink" x="0px" y="0px"
	 viewBox="0 0 612 450.2" style="enable-background:new 0 0 612 450.2;" xml:space="preserve">
<style type="text/css">
	.st0{fill:#E900CA;}
</style>
<g>
	<g>
		<g>
			<path class="st0" d="M190.3,173.4c15.4-0.6,32.5,0.7,49.3,3c16.9,2.2,33.6,5.3,48.8,7.7c18.3,2.8,37,6.8,55.6,11.4
				c18.6,4.6,37.3,10.1,54.9,17.2c-0.3,0.8-3.8,1-1,2.5c11.1,6,10.2,7.8,9.5,9.5c-0.3,0.8-8.5-3.7-6-1.6c-8.5-3.7-23-8.3-14.7-4.4
				c0.6,0.5,1.8,1,3.3,1.7c1.5,0.6,3.3,1.4,5,2.1c0.9,0.4,1.8,0.7,2.6,1.1c0.8,0.4,1.6,0.8,2.3,1.1c1.4,0.7,2.6,1.5,3.1,2.1
				c2.2,2.4-3.9,1.3-1.6,3.7c2.7,1.2,8.2,3.7,10.8,5.1c2.2,2.1-3.9,1.1-1.2,2.4c7.5,4.7,17.8,10.2,27.1,17.1
				c-0.3,0.4,0.1,1.2-0.2,1.5c-0.1,0.2-0.4,0.2-0.9,0c-0.5-0.2-1.4-0.6-2.6-1.3c-5.1-3.7-10.5-6.9-16-10c-2.8-1.5-5.6-3-8.5-4.4
				c-1.4-0.7-2.8-1.4-4.3-2.1l-4.4-2c-5.9-2.6-11.9-5-18-7.1c-6.1-2.2-12.3-4.2-18.6-6.1c-12.6-3.7-25.4-7-38.4-10.1
				c-13-3.1-26-6-39-8.7c-26-5.3-52.2-9.2-78.3-10.8c-13-0.8-26-1-39-0.5c-3.2,0.2-6.5,0.2-9.5,0.5c-3.1,0.2-6,0.6-8.7,1.1
				c-5.5,1-10.3,2.7-13.5,5.2c-1.5,1.1-2.3,1.7-2.8,1.9c-0.3,0.2-0.5,0.2-0.6,0c0-0.1,0-0.2,0-0.4c0-0.2,0-0.3,0.1-0.4
				c0.1-0.3,0.2-0.8,0.4-1.3c0.3-0.5,0.6-1,1-1.6c0.8-1.1,2-2.4,3.5-3.5c-0.9,0.8-1.6,0.8-2.2,1c-0.3,0.1-0.6,0.1-1,0.3
				c-0.3,0.2-0.7,0.4-1.1,0.9c-0.4-0.5-0.1-2,1.7-4c1.9-2,5.5-4.4,11.1-5.9c-2.8,0.6-5.6,1.4-8.2,2.5c-1.4,0.3-1.5,0.1-1.4-0.5
				c0.2-0.5,0.7-1.2,0.5-1.6c2.8-1.2,5.7-1.9,5.6-2.4c-0.1-0.4-0.4-1.3-0.5-1.8c-1.5,0.4-3.8,1.1-5.9,2c-2.2,0.9-4.3,2-5.6,2.9
				c2.7-1.7,5.6-2.9,5.5-3.4c-0.2-0.4-0.5-1.3-0.7-1.7c3-1.5,7-2.6,10.9-3.2c4-0.7,7.9-1,11-1.5l-0.1-1.4c-3.2,0-7.1,0.5-11.1,1.3
				c-4,0.8-8,2.1-11.2,3.5c3-1.7,2.9-2,2.6-2.9c4.9-1.9,9.9-2.6,14.8-3.1l7.2-0.6c2.3-0.2,4.6-0.5,6.9-0.9c-3.1,0.2-6.2,0.3-9.4,0.5
				c0.8-0.4,1.7-0.6,2.7-0.9c1-0.2,2.2-0.4,3.4-0.5c2.5-0.3,5.3-0.4,8.2-0.5c2.9,0,5.9,0.1,8.8,0.1
				C185.3,173.4,188,173.5,190.3,173.4z"/>
		</g>
	</g>
</g>
</svg>
